HIERARCHY
ROOT RootJoint
{
    OFFSET   0.000000   0.000000   0.000000
    CHANNELS 6 Xposition Yposition Zposition Xrotation Yrotation Zrotation
    JOINT pelvis_lowerback
    {
        OFFSET   0.000000   0.093605   0.000000
        CHANNELS 3 Xrotation Yrotation Zrotation
        JOINT lowerback_torso
        {
            OFFSET   0.000000   0.100000   0.000000
            CHANNELS 3 Xrotation Yrotation Zrotation
            JOINT torso_head
            {
                OFFSET   0.000000   0.282350   0.000000
                CHANNELS 3 Xrotation Yrotation Zrotation
                End Site
                {
                    OFFSET   0.000000   0.192650   0.000000
                }
            }
            JOINT rTorso_Clavicle
            {
                OFFSET  -0.001000   0.157500   0.000000
                CHANNELS 3 Xrotation Yrotation Zrotation
                JOINT rShoulder
                {
                    OFFSET  -0.117647   0.000000   0.000000
                    CHANNELS 3 Xrotation Yrotation Zrotation
                    JOINT rElbow
                    {
                        OFFSET  -0.245000   0.000000   0.000000
                        CHANNELS 3 Xrotation Yrotation Zrotation
                        JOINT rWrist
                        {
                            OFFSET  -0.240000   0.000000   0.000000
                            CHANNELS 3 Xrotation Yrotation Zrotation
                            End Site
                            {
                                OFFSET  -0.116353  -0.002500   0.000000
                            }
                        }
                    }
                }
            }
            JOINT lTorso_Clavicle
            {
                OFFSET   0.001000   0.157500   0.000000
                CHANNELS 3 Xrotation Yrotation Zrotation
                JOINT lShoulder
                {
                    OFFSET   0.117647   0.000000   0.000000
                    CHANNELS 3 Xrotation Yrotation Zrotation
                    JOINT lElbow
                    {
                        OFFSET   0.245000   0.000000   0.000000
                        CHANNELS 3 Xrotation Yrotation Zrotation
                        JOINT lWrist
                        {
                            OFFSET   0.240000   0.000000   0.000000
                            CHANNELS 3 Xrotation Yrotation Zrotation
                            End Site
                            {
                                OFFSET   0.116353  -0.002500   0.000000
                            }
                        }
                    }
                }
            }
        }
    }
    JOINT rHip
    {
        OFFSET  -0.100000  -0.051395   0.000000
        CHANNELS 3 Xrotation Yrotation Zrotation
        JOINT rKnee
        {
            OFFSET   0.000000  -0.410000   0.000000
            CHANNELS 3 Xrotation Yrotation Zrotation
            JOINT rAnkle
            {
                OFFSET   0.000000  -0.390000   0.000000
                CHANNELS 3 Xrotation Yrotation Zrotation
                JOINT rToeJoint
                {
                    OFFSET   0.000000  -0.050000   0.130000
                    CHANNELS 3 Xrotation Yrotation Zrotation
                    End Site
                    {
                        OFFSET  -0.010000   0.002000   0.060000
                    }
                }
            }
        }
    }
    JOINT lHip
    {
        OFFSET   0.100000  -0.051395   0.000000
        CHANNELS 3 Xrotation Yrotation Zrotation
        JOINT lKnee
        {
            OFFSET   0.000000  -0.410000   0.000000
            CHANNELS 3 Xrotation Yrotation Zrotation
            JOINT lAnkle
            {
                OFFSET   0.000000  -0.390000   0.000000
                CHANNELS 3 Xrotation Yrotation Zrotation
                JOINT lToeJoint
                {
                    OFFSET   0.000000  -0.050000   0.130000
                    CHANNELS 3 Xrotation Yrotation Zrotation
                    End Site
                    {
                        OFFSET   0.010000   0.002000   0.060000
                    }
                }
            }
        }
    }
}
MOTION
Frames: 15
Frame Time:   0.008333
 -2.376719   0.925631   3.975860   0.000000   0.000000   0.000000   0.000000   0.000000   0.000000   0.000000   0.000000   0.000000   0.000000   0.000000   0.000000   0.000000   0.000000   0.000000   0.000000   0.000000   0.000000   0.000000   0.000000   0.000000   0.000000   0.000000   0.000000   0.000000   0.000000   0.000000   0.000000   0.000000   0.000000   0.000000   0.000000   0.000000   0.000000   0.000000   0.000000   0.000000   0.000000   0.000000   0.000000   0.000000   0.000000   0.000000   0.000000   0.000000   0.000000   0.000000   0.000000   0.000000   0.000000   0.000000   0.000000   0.000000   0.000000   0.000000   0.000000   0.000000   0.000000   0.000000   0.000000
 -2.376898   0.925425   3.973579  -0.165031   0.734948  -0.864458   0.721252  -0.256793   0.984219   0.029847  -0.341828   0.358268  -0.208014   0.144367  -0.093083  -0.098735  -0.836517  -0.705777  -0.985551  -0.031081   1.209136   0.029949   3.617527   0.014877   0.067056  -1.386222  -1.267759   0.102301  -0.049809  -0.191712   1.564518   0.305440  -2.235972   0.033876  -1.947878   0.038693   0.127970   0.735282   1.966983  -0.721997  -0.323288   0.939412   2.972186  -0.001816   0.011026  -2.593533  -0.920711  -0.315547   0.483871   0.000924  -0.002119  -1.526865  -0.289432   1.126794   3.689177  -0.008369   0.015487  -2.694846  -0.138099  -0.525892   0.698550   0.001467   0.001969
 -2.376989   0.926067   3.970950  -0.569065   1.697081  -1.675226   1.629042  -0.566279   1.972340   0.303622  -0.779733   0.744699  -0.335913   0.287714  -0.102848  -0.201472  -1.607765  -1.072638  -1.917768   0.002975   2.564261   0.070700   7.351336   0.019287   0.114757  -1.830813  -2.251117   0.212130  -0.245891  -0.971539   3.116655   0.401895  -4.954758   0.079504  -3.848678   0.072043   0.323377   0.897740   3.344120  -1.142737  -0.635413   1.780817   6.149535  -0.000637   0.027631  -5.011499  -1.775043  -0.652085   0.860673   0.001647  -0.002307  -3.249339  -0.490005   2.052011   7.597922  -0.008301   0.042145  -5.084196  -0.175198  -1.144774   1.376539   0.003981   0.006248
 -2.377449   0.926253   3.968341  -1.032215   2.517073  -2.562213   2.546896  -0.793040   2.994759   0.658916  -1.167389   1.151713  -0.426727   0.425228  -0.074675  -0.293595  -2.241662  -1.242773  -2.790023   0.083845   3.977807   0.109161  11.077596   0.019880   0.165036  -1.941903  -2.844025   0.305431  -0.515908  -2.001326   4.645060   0.346626  -7.924830   0.124108  -5.651701   0.096961   0.529532   0.805461   4.110598  -1.412047  -0.916350   2.700651   9.219332   0.001729   0.037431  -7.270095  -2.555337  -0.995874   1.200874   0.002207  -0.002486  -4.952626  -0.770193   3.218915  11.519149  -0.011676   0.059320  -7.426854  -0.248840  -1.603250   1.967305   0.004029   0.008078
 -2.378142   0.925840   3.965859  -1.491855   3.173221  -3.385700   3.433129  -0.950512   3.916669   1.025292  -1.486898   1.500073  -0.504733   0.553971  -0.029853  -0.373662  -2.743255  -1.252820  -3.605962   0.207146   5.411917   0.138616  14.587403   0.019139   0.219878  -1.822271  -3.162586   0.378702  -0.821661  -3.207466   6.074829   0.175364 -10.907516   0.162334  -7.350996   0.113320   0.737843   0.586100   4.431030  -1.586827  -1.180786   3.534864  12.119467   0.004698   0.040491  -9.383595  -3.270779  -1.342714   1.505050   0.002666  -0.002780  -6.610551  -1.070883   4.437542  15.232925  -0.016446   0.069229  -9.613538  -0.297367  -2.029380   2.509452   0.003344   0.008879
 -2.379010   0.924726   3.963559  -1.928699   3.682278  -4.130396   4.275689  -1.052745   4.723791   1.380407  -1.746706   1.768734  -0.577387   0.673907   0.017722  -0.441578  -3.145966  -1.157283  -4.367968   0.347182   6.833058   0.157929  17.880330   0.018043   0.274631  -1.596956  -3.288479   0.431638  -1.136966  -4.514878   7.394506  -0.081296 -13.816840   0.192251  -8.946842   0.122730   0.940787   0.302435   4.446128  -1.689921  -1.428132   4.266774  14.845086   0.007425   0.038873 -11.361938  -3.927399  -1.689657   1.778719   0.003020  -0.003116  -8.215118  -1.390577   5.667884  18.685633  -0.021787   0.073940 -11.655671  -0.325331  -2.425599   3.002924   0.002283   0.008982
 -2.380012   0.922840   3.961462  -2.338854   4.067560  -4.802415   5.072424  -1.112231   5.420152   1.718187  -1.958353   1.958869  -0.646111   0.785458   0.062750  -0.498642  -3.478313  -1.000832  -5.078985   0.487681   8.213878   0.167602  20.963962   0.016989   0.327222  -1.321372  -3.288849   0.466458  -1.445285  -5.866771   8.609423  -0.399497 -16.618831   0.213672 -10.441838   0.126876   1.134153  -0.008753   4.257124  -1.732128  -1.656791   4.905006  17.404213   0.009473   0.034474 -13.213830  -4.529807  -2.033894   2.025962   0.003268  -0.003423  -9.765885  -1.730618   6.897015  21.889001  -0.027156   0.075366 -13.563417  -0.336720  -2.793828   3.449118   0.001081   0.008655
 -2.380770   0.919773   3.959048  -2.498416   4.411801  -5.187405   5.683156  -1.020143   5.795148   1.973054  -2.145843   2.076234  -0.808827   1.088268   0.125860  -0.536279  -3.955744  -1.152140  -5.359213   0.646594   9.674666   0.174924  24.339407   0.002071   0.308458  -1.364839  -3.085848   0.573982  -1.773501  -6.674300   9.918188  -0.912059 -19.410302   0.228961 -11.994913   0.133548   1.271989  -0.481368   3.520456  -1.711114  -2.009834   5.158116  19.259577   0.010576   0.026689 -14.952550  -5.249310  -2.204378   2.328943   0.003317  -0.004701 -12.023476  -1.697137   7.745418  25.570967  -0.024929   0.091399 -13.328014  -0.401234  -2.961988   3.559693   0.000628   0.007755
 -2.381421   0.915672   3.956668  -2.646803   4.619460  -5.502302   6.283358  -0.833251   6.103071   2.219869  -2.250973   2.142962  -0.964869   1.383100   0.174920  -0.575597  -4.364328  -1.393585  -5.630004   0.827880  10.978231   0.172476  27.517192  -0.010494   0.309135  -1.262471  -2.905090   0.664332  -2.077577  -7.325341  11.116232  -1.442232 -21.941106   0.233700 -13.451732   0.135097   1.411387  -1.019346   2.799832  -1.553179  -2.322451   5.313718  20.925973   0.010868   0.018765 -16.583186  -5.919157  -2.384280   2.605480   0.003379  -0.005711 -14.345221  -1.674692   8.483432  29.055113  -0.020205   0.099169 -13.079246  -0.458949  -3.118899   3.823455   0.000153   0.007974
 -2.382023   0.910603   3.954409  -2.792986   4.724997  -5.790804   6.862511  -0.590084   6.374435   2.465882  -2.287042   2.184508  -1.106741   1.659239   0.217536  -0.623360  -4.707768  -1.692896  -5.897797   1.022229  12.144803   0.164325  30.496338  -0.020364   0.317667  -1.085960  -2.818586   0.744541  -2.341533  -7.873163  12.215531  -1.964411 -24.251627   0.231009 -14.807187   0.132567   1.538370  -1.524699   2.182200  -1.286296  -2.600840   5.431714  22.495025   0.010542   0.011403 -18.108639  -6.540278  -2.569690   2.861445   0.003430  -0.006444 -16.661204  -1.695285   9.164505  32.272282  -0.014998   0.100090 -12.847875  -0.513160  -3.266004   4.067020  -0.000086   0.007789
 -2.382599   0.904612   3.952313  -2.938042   4.758511  -6.063142   7.414191  -0.308100   6.614907   2.707744  -2.268718   2.209235  -1.235764   1.916870   0.256698  -0.678378  -5.002099  -2.026673  -6.161199   1.219568  13.196950   0.153208  33.285884  -0.027805   0.330920  -0.867980  -2.814467   0.821126  -2.562466  -8.343908  13.228203  -2.468063 -26.372883   0.223298 -16.065161   0.127060   1.652112  -1.970792   1.649451  -0.927374  -2.849150   5.528665  23.985899   0.009802   0.004969 -19.535092  -7.115774  -2.758138   3.099125   0.003462  -0.006908 -18.948922  -1.757706   9.799512  35.233375  -0.010072   0.096707 -12.633835  -0.564086  -3.403668   4.285820  -0.000177   0.007334
 -2.383156   0.897734   3.950398  -3.082782   4.741076  -6.322499   7.935221   0.001885   6.827170   2.942861  -2.207306   2.220667  -1.353789   2.157167   0.293083  -0.738652  -5.259483  -2.377910  -6.418261   1.412878  14.152598   0.140842  35.895494  -0.033176   0.347118  -0.627881  -2.871181   0.898498  -2.741611  -8.754459  14.164433  -2.947883 -28.328141   0.212310 -17.231171   0.119525   1.753969  -2.352634   1.178353  -0.491822  -3.070008   5.610966  25.404798   0.008815  -0.000406 -20.868897  -7.648739  -2.947667   3.319783   0.003468  -0.007133 -21.193558  -1.856702  10.390124  37.959082  -0.005715   0.090813 -12.435869  -0.611841  -3.532373   4.481900  -0.000178   0.006735
 -2.383697   0.890002   3.948669  -3.227963   4.687769  -6.570566   8.424646   0.331793   7.013945   3.169911  -2.111717   2.221377  -1.462361   2.381347   0.326809  -0.802331  -5.488105  -2.734690  -6.667353   1.598131  15.025675   0.128284  38.335171  -0.036839   0.365146  -0.378036  -2.970714   0.979400  -2.882211  -9.116432  15.032677  -3.401506 -30.135602   0.199303 -18.311190   0.110741   1.845617  -2.672134   0.752287   0.005168  -3.265890   5.682256  26.754819   0.007711  -0.004725 -22.116078  -8.142157  -3.136643   3.524479   0.003445  -0.007158 -23.383373  -1.986388  10.936190  40.470049  -0.001998   0.083593 -12.252717  -0.656595  -3.652644   4.657420  -0.000127   0.006075
 -2.383930   0.881451   3.947177  -3.118439   4.252784  -6.446814   8.617597   0.975842   6.804752   3.245869  -1.979680   2.044286  -1.679797   2.433144   0.352655  -0.746914  -5.605738  -3.218244  -6.287992   1.643754  15.865568   0.128561  41.233409  -0.062013   0.334801  -0.439999  -3.014112   1.263875  -2.708799  -8.896860  16.034640  -3.808157 -31.562715   0.191311 -19.830114   0.107658   1.935273  -3.252827  -0.333997   0.521335  -3.570537   5.307576  26.858912   0.006072  -0.004536 -22.641744  -8.935327  -3.203685   4.228378   0.003933  -0.015630 -25.467554  -1.808482  10.959611  41.936719   0.001224   0.068299  -9.924098  -0.806396  -3.214290   4.690007  -0.000222   0.004892
 -2.384291   0.873835   3.944895  -2.957067   3.844755  -6.191406   8.909350   1.647447   6.472211   3.292707  -1.795387   1.845902  -1.919881   2.473160   0.346404  -0.697364  -5.663696  -3.646878  -5.939936   1.727744  16.656387   0.133778  43.966051  -0.087045   0.327062  -0.352128  -3.040462   1.525882  -2.516530  -8.494769  16.971686  -4.150496 -32.720936   0.177924 -21.236786   0.102091   2.016489  -3.867587  -1.160409   0.726625  -3.774649   5.150050  26.364818   0.006438  -0.001334 -23.895062  -9.389235  -3.139278  -3.880449   0.034148   0.069131 -27.479014  -1.634801  10.772328  43.738221   0.004468   0.054493  -8.625189  -0.961216  -3.012270  -3.526138   0.005267   0.009023
